<svg xmlns="http://www.w3.org/2000/svg" width="50" height="50" fill="#FFF">
    <path d="M24.906 3.969c-.043.008-.086.02-.125.031A1.002 1.002 0 0 0 24 5v6c-.004.36.184.695.496.879.313.18.695.18 1.008 0 .312-.184.5-.52.496-.879V5a1 1 0 0 0-1.094-1.031Zm-14.25 5.875a.994.994 0 0 0-.781.703c-.105.367.004.758.281 1.015l4.25 4.25c.242.297.63.434 1.004.348.371-.086.664-.379.75-.75a1.004 1.004 0 0 0-.348-1.004l-4.25-4.25a1.004 1.004 0 0 0-.812-.312h-.094Zm28.375 0a1.005 1.005 0 0 0-.593.312l-4.25 4.25a1.004 1.004 0 0 0-.348 1.004c.086.371.379.664.75.75.375.086.762-.05 1.004-.348l4.25-4.25a1 1 0 0 0-.813-1.719ZM24.906 15a.88.88 0 0 0-.093.031 1.044 1.044 0 0 0-.188.031l-.031.032C19.289 15.32 15 19.64 15 25c0 5.504 4.496 10 10 10s10-4.496 10-10c0-5.34-4.254-9.645-9.531-9.906-.035 0-.059-.031-.094-.031a.967.967 0 0 0-.313-.063h-.156Zm.032 2h.156A8.001 8.001 0 0 1 33 25c0 4.422-3.578 8-8 8-4.418 0-8-3.578-8-8a8 8 0 0 1 7.938-8Zm-20.22 7c-.55.078-.937.59-.859 1.14.079.551.59.938 1.141.86h6c.36.004.695-.184.879-.496a1.01 1.01 0 0 0 0-1.008c-.184-.312-.52-.5-.879-.496H4.719Zm34 0c-.55.078-.937.59-.859 1.14.078.551.59.938 1.141.86h6c.36.004.695-.184.879-.496a1.01 1.01 0 0 0 0-1.008c-.184-.312-.52-.5-.879-.496H38.719ZM15 33.875a1.005 1.005 0 0 0-.594.313l-4.25 4.25a1.004 1.004 0 0 0-.347 1.003c.086.371.379.664.75.75.375.086.761-.05 1.004-.347l4.25-4.25a1.002 1.002 0 0 0-.719-1.719H15Zm19.688 0a.994.994 0 0 0-.782.703c-.105.367.004.758.282 1.016l4.25 4.25c.242.297.628.433 1.003.347.371-.086.664-.379.75-.75a1.004 1.004 0 0 0-.347-1.004l-4.25-4.25a1 1 0 0 0-.719-.312h-.187Zm-9.782 4.094c-.043.008-.086.02-.125.031A1.002 1.002 0 0 0 24 39v6c-.004.36.184.695.496.879.313.18.695.18 1.008 0 .312-.184.5-.52.496-.879v-6a1 1 0 0 0-1.094-1.031Z"/>
</svg>