<svg xmlns="http://www.w3.org/2000/svg" width="230.667" height="233.333" version="1.0" viewBox="0 0 173 175">
    <path d="M82.7 18.1c.6 8.3.6 8.3-1.4 6.9-13.4-9.8-17.8-12.7-18.1-12-.5 1.5 4.6 22.8 6.6 27.4l2 4.4-4.3 1.1c-4.3 1.1-7 3.1-4.2 3.1 4.1 0 15.3 4.5 18 7.1 2.5 2.6 2.8 3.5 2.4 7.2-.2 2.3-1.2 6.7-2.1 9.7-.9 3-1.6 8.2-1.6 11.6v6.1l-5.2.7c-2.9.3-12 .6-20.3.6-8.2 0-16 .3-17.3.6-2.1.6-12.8 15.1-11.8 16.1.3.3 1.5-.2 2.8-1.1 2-1.4 8.7-1.6 60.4-1.6h58.2l3.1 2.6c1.7 1.4 3.1 2.1 3.1 1.6 0-2.3-10.2-16.3-12.6-17.2-1.4-.6-9.2-1-17.3-1-8.2 0-17.5-.3-20.8-.6l-6-.7-.6-7.2c-.4-4.1-1.6-10.3-2.8-13.8-3.9-11.9-.8-16.9 11.9-19 3.9-.7 7.4-1.5 7.7-1.9.4-.4-1.7-1.4-4.7-2.3l-5.4-1.5 4.7-9.8c2.6-5.4 7-12.9 9.8-16.6l5.1-6.7-6 3.2c-7.3 3.9-13.6 9.2-17.5 14.9l-2.8 4.1-1.8-5.5c-2-6.5-5.7-13.2-9.2-16.4l-2.5-2.4.5 8.3z"/>
    <path d="M30.4 108.6c-3.4 1.6-5.4 5-5.4 9 0 6 4.8 9.4 13.5 9.4 3 0 5.5.3 5.5.8 0 .4-1.8 6.1-4.1 12.7-4.5 13.4-5.9 21.6-3.9 24 .7.8 2.8 1.5 4.6 1.5 4.7 0 7.5-3.4 19.3-22.5l9.8-16 18-.3 18-.2 9.4 15.7c10.9 18.2 15.2 23.3 19.6 23.3 3.7 0 6.3-2.7 6.3-6.6 0-2.3-6.3-22.7-9.5-30.7-.6-1.5 0-1.7 5.8-1.7 7.8 0 11.3-1.4 13.3-5.1 2-3.9 1.7-7.2-.7-10.3-3.4-4.4-5.9-4.8-9.2-1.7l-2.8 2.6-46.7.3c-48.7.3-53.2 0-55.2-3.8-1.3-2.4-1.6-2.4-5.6-.4zM65 127.4c0 .2-3.3 5.7-7.3 12.3-13.8 22.3-14.2 22.8-17.4 22.1-1.3-.3-1.7-1.2-1.6-3.3.2-2.8 6.1-21.3 8.9-28.1L49 127h8c4.4 0 8 .2 8 .4zm64.8 7.8c7.3 20.2 8.6 26.8 5.5 26.8-3.5-.1-7-4.6-18.1-23.1-7.6-12.8-7.8-11.9 1.6-11.9h8l3 8.2z"/>
</svg>